<?xml version="1.0" encoding="UTF-8"?>
<svg xmlns="http://www.w3.org/2000/svg" xmlns:xlink="http://www.w3.org/1999/xlink" width="1920" height="1080" viewBox="0 0 1920 1080">
<defs>
<g>
<g id="glyph-0-0">
<path d="M 3.058594 -2.03125 C 3.152344 -1.925781 3.222656 -1.8125 3.269531 -1.6875 C 3.3125 -1.566406 3.335938 -1.421875 3.335938 -1.257812 C 3.335938 -0.867188 3.191406 -0.542969 2.902344 -0.289062 C 2.613281 -0.0351562 2.253906 0.0898438 1.824219 0.0898438 C 1.628906 0.0898438 1.429688 0.0585938 1.230469 0 C 1.035156 -0.0625 0.863281 -0.136719 0.71875 -0.226562 L 0.585938 0.00390625 L 0.335938 0.00390625 L 0.292969 -1.511719 L 0.546875 -1.511719 C 0.597656 -1.324219 0.660156 -1.15625 0.726562 -1.007812 C 0.796875 -0.855469 0.890625 -0.714844 1.003906 -0.582031 C 1.113281 -0.460938 1.238281 -0.363281 1.382812 -0.289062 C 1.527344 -0.21875 1.695312 -0.179688 1.886719 -0.179688 C 2.03125 -0.179688 2.15625 -0.199219 2.261719 -0.238281 C 2.371094 -0.273438 2.457031 -0.328125 2.523438 -0.398438 C 2.589844 -0.464844 2.640625 -0.546875 2.671875 -0.636719 C 2.703125 -0.730469 2.71875 -0.839844 2.71875 -0.957031 C 2.71875 -1.136719 2.671875 -1.300781 2.570312 -1.453125 C 2.472656 -1.605469 2.320312 -1.722656 2.125 -1.800781 C 1.988281 -1.855469 1.835938 -1.914062 1.660156 -1.980469 C 1.484375 -2.046875 1.335938 -2.109375 1.207031 -2.164062 C 0.957031 -2.277344 0.765625 -2.425781 0.625 -2.605469 C 0.488281 -2.789062 0.417969 -3.027344 0.417969 -3.320312 C 0.417969 -3.488281 0.453125 -3.644531 0.519531 -3.789062 C 0.589844 -3.9375 0.6875 -4.066406 0.8125 -4.179688 C 0.933594 -4.289062 1.078125 -4.375 1.242188 -4.433594 C 1.40625 -4.496094 1.578125 -4.527344 1.757812 -4.527344 C 1.960938 -4.527344 2.144531 -4.496094 2.304688 -4.433594 C 2.464844 -4.371094 2.613281 -4.296875 2.746094 -4.214844 L 2.875 -4.425781 L 3.121094 -4.425781 L 3.148438 -2.957031 L 2.894531 -2.957031 C 2.847656 -3.125 2.796875 -3.289062 2.742188 -3.441406 C 2.683594 -3.59375 2.609375 -3.734375 2.519531 -3.859375 C 2.429688 -3.980469 2.320312 -4.074219 2.191406 -4.148438 C 2.0625 -4.21875 1.902344 -4.253906 1.714844 -4.253906 C 1.519531 -4.253906 1.351562 -4.191406 1.210938 -4.066406 C 1.070312 -3.9375 1 -3.785156 1 -3.601562 C 1 -3.410156 1.046875 -3.25 1.136719 -3.125 C 1.226562 -3 1.355469 -2.894531 1.527344 -2.8125 C 1.675781 -2.742188 1.828125 -2.679688 1.972656 -2.625 C 2.121094 -2.570312 2.261719 -2.515625 2.398438 -2.457031 C 2.523438 -2.402344 2.644531 -2.339844 2.757812 -2.269531 C 2.875 -2.203125 2.976562 -2.121094 3.058594 -2.03125 Z "/>
</g>
<g id="glyph-0-1">
<path d="M 2.808594 -0.0117188 L 0.457031 -0.0117188 L 0.457031 -0.359375 C 0.539062 -0.492188 0.664062 -0.628906 0.828125 -0.757812 C 0.996094 -0.890625 1.195312 -1.027344 1.433594 -1.175781 C 1.503906 -1.222656 1.585938 -1.28125 1.671875 -1.359375 C 1.761719 -1.433594 1.832031 -1.503906 1.878906 -1.570312 C 1.941406 -1.652344 1.988281 -1.738281 2.019531 -1.828125 C 2.050781 -1.921875 2.070312 -2.035156 2.070312 -2.171875 C 2.070312 -2.371094 2.015625 -2.523438 1.914062 -2.625 C 1.8125 -2.730469 1.679688 -2.78125 1.511719 -2.78125 C 1.394531 -2.78125 1.292969 -2.761719 1.207031 -2.722656 C 1.125 -2.679688 1.0625 -2.632812 1.027344 -2.578125 C 1.039062 -2.53125 1.054688 -2.472656 1.070312 -2.410156 C 1.085938 -2.347656 1.09375 -2.28125 1.09375 -2.210938 C 1.09375 -2.148438 1.0625 -2.089844 1.007812 -2.042969 C 0.949219 -1.996094 0.863281 -1.972656 0.753906 -1.972656 C 0.65625 -1.972656 0.582031 -2.003906 0.542969 -2.070312 C 0.5 -2.136719 0.476562 -2.207031 0.476562 -2.289062 C 0.476562 -2.480469 0.585938 -2.648438 0.804688 -2.796875 C 1.019531 -2.941406 1.273438 -3.015625 1.558594 -3.015625 C 1.886719 -3.015625 2.152344 -2.9375 2.359375 -2.78125 C 2.566406 -2.625 2.667969 -2.414062 2.667969 -2.148438 C 2.667969 -1.992188 2.644531 -1.859375 2.597656 -1.742188 C 2.550781 -1.628906 2.488281 -1.527344 2.410156 -1.449219 C 2.332031 -1.363281 2.238281 -1.289062 2.136719 -1.226562 C 2.039062 -1.164062 1.933594 -1.105469 1.824219 -1.054688 C 1.691406 -0.988281 1.53125 -0.902344 1.339844 -0.796875 C 1.148438 -0.6875 0.992188 -0.574219 0.871094 -0.460938 L 2.808594 -0.460938 Z "/>
</g>
<g id="glyph-0-2">
</g>
<g id="glyph-0-3">
<path d="M 3.628906 -2.128906 L 0.480469 -2.128906 L 0.480469 -2.519531 L 3.628906 -2.519531 L 3.628906 -2.128906 M 3.628906 -0.96875 L 0.480469 -0.96875 L 0.480469 -1.359375 L 3.628906 -1.359375 Z "/>
</g>
<g id="glyph-0-4">
<path d="M 4.71875 -0.339844 C 4.71875 -0.230469 4.675781 -0.136719 4.59375 -0.0546875 C 4.515625 0.0234375 4.417969 0.0625 4.308594 0.0625 C 4.199219 0.0625 4.101562 0.0234375 4.019531 -0.0546875 C 3.941406 -0.136719 3.898438 -0.230469 3.898438 -0.339844 C 3.898438 -0.449219 3.941406 -0.546875 4.019531 -0.628906 C 4.101562 -0.707031 4.195312 -0.75 4.308594 -0.75 C 4.421875 -0.75 4.515625 -0.707031 4.597656 -0.628906 C 4.675781 -0.546875 4.71875 -0.449219 4.71875 -0.339844 M 3 -0.339844 C 3 -0.226562 2.957031 -0.132812 2.875 -0.0546875 C 2.792969 0.0234375 2.699219 0.0625 2.589844 0.0625 C 2.480469 0.0625 2.382812 0.0234375 2.300781 -0.0546875 C 2.222656 -0.136719 2.179688 -0.230469 2.179688 -0.339844 C 2.179688 -0.449219 2.222656 -0.546875 2.300781 -0.628906 C 2.382812 -0.707031 2.476562 -0.75 2.589844 -0.75 C 2.699219 -0.75 2.796875 -0.707031 2.875 -0.628906 C 2.957031 -0.546875 3 -0.449219 3 -0.339844 M 1.277344 -0.339844 C 1.277344 -0.226562 1.238281 -0.132812 1.15625 -0.0546875 C 1.074219 0.0234375 0.980469 0.0625 0.871094 0.0625 C 0.761719 0.0625 0.664062 0.0234375 0.582031 -0.0546875 C 0.503906 -0.136719 0.460938 -0.230469 0.460938 -0.339844 C 0.460938 -0.449219 0.5 -0.546875 0.582031 -0.628906 C 0.660156 -0.707031 0.757812 -0.75 0.871094 -0.75 C 0.980469 -0.75 1.078125 -0.707031 1.15625 -0.628906 C 1.238281 -0.546875 1.277344 -0.449219 1.277344 -0.339844 Z "/>
</g>
<g id="glyph-0-5">
<path d="M 3.660156 -1.550781 L 2.253906 -1.550781 L 2.253906 -0.144531 L 1.855469 -0.144531 L 1.855469 -1.550781 L 0.449219 -1.550781 L 0.449219 -1.941406 L 1.855469 -1.941406 L 1.855469 -3.347656 L 2.253906 -3.347656 L 2.253906 -1.941406 L 3.660156 -1.941406 Z "/>
</g>
<g id="glyph-0-6">
<path d="M 2.523438 0 L 0.421875 0 L 0.421875 -0.222656 C 0.484375 -0.226562 0.582031 -0.234375 0.710938 -0.246094 C 0.84375 -0.261719 0.9375 -0.277344 0.984375 -0.289062 C 1.050781 -0.3125 1.101562 -0.34375 1.132812 -0.390625 C 1.167969 -0.4375 1.183594 -0.507812 1.183594 -0.601562 L 1.183594 -2.792969 L 0.410156 -2.792969 L 0.410156 -3.054688 L 0.582031 -3.054688 C 0.804688 -3.054688 1.007812 -3.097656 1.183594 -3.179688 C 1.363281 -3.261719 1.488281 -3.351562 1.566406 -3.449219 L 1.824219 -3.449219 C 1.820312 -3.3125 1.8125 -3.152344 1.804688 -2.972656 C 1.800781 -2.792969 1.796875 -2.628906 1.796875 -2.488281 L 1.796875 -0.636719 C 1.796875 -0.5625 1.8125 -0.5 1.84375 -0.441406 C 1.878906 -0.382812 1.925781 -0.34375 1.984375 -0.316406 C 2.039062 -0.292969 2.125 -0.269531 2.25 -0.253906 C 2.371094 -0.234375 2.464844 -0.222656 2.523438 -0.222656 Z "/>
</g>
<g id="glyph-0-7">
<path d="M 2.714844 -4.75 L 0.558594 1.324219 L 0.152344 1.324219 L 2.300781 -4.75 Z "/>
</g>
<g id="glyph-0-8">
<path d="M 3.265625 0 L 0.34375 0 L 0.34375 -0.425781 C 0.398438 -0.492188 0.476562 -0.5625 0.578125 -0.644531 C 0.675781 -0.722656 0.796875 -0.808594 0.933594 -0.902344 C 1.015625 -0.960938 1.117188 -1.019531 1.230469 -1.085938 C 1.347656 -1.152344 1.480469 -1.226562 1.628906 -1.304688 C 1.792969 -1.394531 1.917969 -1.46875 2.007812 -1.535156 C 2.097656 -1.601562 2.175781 -1.683594 2.25 -1.78125 C 2.296875 -1.847656 2.335938 -1.925781 2.363281 -2.023438 C 2.394531 -2.121094 2.410156 -2.257812 2.410156 -2.4375 C 2.410156 -2.695312 2.339844 -2.886719 2.199219 -3.007812 C 2.058594 -3.128906 1.882812 -3.191406 1.664062 -3.191406 C 1.527344 -3.191406 1.398438 -3.164062 1.277344 -3.113281 C 1.160156 -3.058594 1.066406 -2.984375 1.007812 -2.890625 C 1.023438 -2.824219 1.039062 -2.746094 1.0625 -2.65625 C 1.085938 -2.5625 1.09375 -2.472656 1.09375 -2.386719 C 1.09375 -2.308594 1.0625 -2.238281 0.996094 -2.175781 C 0.929688 -2.113281 0.835938 -2.085938 0.703125 -2.085938 C 0.601562 -2.085938 0.519531 -2.121094 0.464844 -2.191406 C 0.410156 -2.261719 0.378906 -2.359375 0.378906 -2.480469 C 0.378906 -2.59375 0.410156 -2.707031 0.472656 -2.820312 C 0.535156 -2.933594 0.625 -3.035156 0.742188 -3.132812 C 0.855469 -3.226562 1 -3.300781 1.167969 -3.359375 C 1.335938 -3.417969 1.515625 -3.449219 1.710938 -3.449219 C 2.140625 -3.449219 2.476562 -3.351562 2.726562 -3.164062 C 2.980469 -2.972656 3.105469 -2.71875 3.105469 -2.398438 C 3.105469 -2.25 3.082031 -2.109375 3.039062 -1.984375 C 2.992188 -1.859375 2.921875 -1.75 2.820312 -1.65625 C 2.710938 -1.550781 2.582031 -1.457031 2.433594 -1.382812 C 2.285156 -1.308594 2.058594 -1.203125 1.757812 -1.066406 C 1.574219 -0.984375 1.40625 -0.902344 1.25 -0.8125 C 1.09375 -0.722656 0.96875 -0.636719 0.867188 -0.554688 L 3.265625 -0.554688 Z "/>
</g>
<g id="glyph-0-9">
<path d="M 1.292969 -0.359375 C 1.292969 -0.242188 1.253906 -0.144531 1.167969 -0.0625 C 1.085938 0.0195312 0.984375 0.0625 0.867188 0.0625 C 0.75 0.0625 0.652344 0.0195312 0.566406 -0.0625 C 0.480469 -0.144531 0.441406 -0.242188 0.441406 -0.359375 C 0.441406 -0.476562 0.480469 -0.574219 0.566406 -0.660156 C 0.652344 -0.742188 0.75 -0.785156 0.867188 -0.785156 C 0.984375 -0.785156 1.085938 -0.742188 1.167969 -0.660156 C 1.253906 -0.574219 1.292969 -0.476562 1.292969 -0.359375 Z "/>
</g>
<g id="glyph-0-10">
<path d="M 2.628906 -1.464844 C 2.765625 -1.355469 2.882812 -1.214844 2.972656 -1.046875 C 3.0625 -0.875 3.105469 -0.660156 3.105469 -0.40625 C 3.105469 0.0429688 2.953125 0.410156 2.648438 0.703125 C 2.34375 0.992188 1.953125 1.140625 1.484375 1.140625 C 1.121094 1.140625 0.8125 1.050781 0.5625 0.878906 C 0.308594 0.707031 0.183594 0.507812 0.183594 0.277344 C 0.183594 0.171875 0.210938 0.078125 0.261719 0 C 0.3125 -0.078125 0.394531 -0.117188 0.503906 -0.117188 C 0.628906 -0.117188 0.722656 -0.0859375 0.789062 -0.0195312 C 0.851562 0.046875 0.886719 0.117188 0.886719 0.195312 C 0.886719 0.261719 0.875 0.34375 0.851562 0.441406 C 0.828125 0.542969 0.8125 0.617188 0.796875 0.664062 C 0.816406 0.679688 0.84375 0.699219 0.878906 0.722656 C 0.917969 0.75 0.960938 0.773438 1.015625 0.796875 C 1.066406 0.820312 1.132812 0.839844 1.210938 0.855469 C 1.289062 0.875 1.382812 0.882812 1.484375 0.882812 C 1.617188 0.882812 1.742188 0.855469 1.863281 0.800781 C 1.980469 0.746094 2.082031 0.667969 2.160156 0.5625 C 2.25 0.445312 2.320312 0.3125 2.363281 0.164062 C 2.40625 0.015625 2.429688 -0.171875 2.429688 -0.402344 C 2.429688 -0.695312 2.347656 -0.9375 2.183594 -1.132812 C 2.023438 -1.324219 1.808594 -1.417969 1.542969 -1.417969 C 1.375 -1.417969 1.21875 -1.386719 1.074219 -1.324219 C 0.929688 -1.261719 0.800781 -1.160156 0.6875 -1.015625 L 0.476562 -1.09375 L 0.742188 -3.347656 L 2.976562 -3.347656 L 2.976562 -2.792969 L 0.996094 -2.792969 L 0.832031 -1.46875 C 0.925781 -1.535156 1.050781 -1.601562 1.203125 -1.667969 C 1.355469 -1.734375 1.523438 -1.765625 1.707031 -1.765625 C 1.859375 -1.765625 2.015625 -1.742188 2.179688 -1.695312 C 2.34375 -1.648438 2.492188 -1.570312 2.628906 -1.464844 Z "/>
</g>
<g id="glyph-0-11">
<path d="M 3.203125 -2.914062 C 3.335938 -2.753906 3.4375 -2.566406 3.503906 -2.351562 C 3.566406 -2.136719 3.601562 -1.910156 3.601562 -1.675781 C 3.601562 -1.390625 3.558594 -1.140625 3.480469 -0.914062 C 3.398438 -0.691406 3.285156 -0.507812 3.144531 -0.359375 C 3 -0.207031 2.828125 -0.09375 2.625 -0.015625 C 2.425781 0.0625 2.203125 0.101562 1.960938 0.101562 C 1.691406 0.101562 1.453125 0.0546875 1.242188 -0.0351562 C 1.03125 -0.125 0.859375 -0.246094 0.730469 -0.402344 C 0.59375 -0.566406 0.492188 -0.753906 0.421875 -0.972656 C 0.355469 -1.1875 0.320312 -1.421875 0.320312 -1.675781 C 0.320312 -1.921875 0.355469 -2.152344 0.417969 -2.359375 C 0.484375 -2.566406 0.585938 -2.753906 0.726562 -2.921875 C 0.859375 -3.085938 1.03125 -3.214844 1.242188 -3.308594 C 1.453125 -3.402344 1.691406 -3.449219 1.960938 -3.449219 C 2.246094 -3.449219 2.492188 -3.398438 2.695312 -3.304688 C 2.898438 -3.207031 3.070312 -3.078125 3.203125 -2.914062 M 2.910156 -1.675781 C 2.910156 -2.171875 2.824219 -2.554688 2.65625 -2.828125 C 2.488281 -3.097656 2.257812 -3.234375 1.964844 -3.234375 C 1.671875 -3.234375 1.4375 -3.097656 1.265625 -2.828125 C 1.097656 -2.554688 1.011719 -2.171875 1.011719 -1.675781 C 1.011719 -1.207031 1.09375 -0.828125 1.253906 -0.542969 C 1.417969 -0.253906 1.652344 -0.113281 1.960938 -0.113281 C 2.265625 -0.113281 2.5 -0.253906 2.664062 -0.542969 C 2.828125 -0.828125 2.910156 -1.207031 2.910156 -1.675781 Z "/>
</g>
</g>
</defs>
<g fill="rgb(100%, 100%, 100%)" fill-opacity="1">
<use xlink:href="#glyph-0-0" x="30" y="25.858398"/>
<use xlink:href="#glyph-0-1" x="34" y="25.858398"/>
<use xlink:href="#glyph-0-2" x="37" y="25.858398"/>
<use xlink:href="#glyph-0-2" x="39" y="25.858398"/>
<use xlink:href="#glyph-0-3" x="41" y="25.858398"/>
<use xlink:href="#glyph-0-2" x="45" y="25.858398"/>
<use xlink:href="#glyph-0-2" x="47" y="25.858398"/>
<use xlink:href="#glyph-0-4" x="49" y="25.858398"/>
<use xlink:href="#glyph-0-2" x="54" y="25.858398"/>
<use xlink:href="#glyph-0-5" x="56" y="25.858398"/>
<use xlink:href="#glyph-0-2" x="60" y="25.858398"/>
<use xlink:href="#glyph-0-6" x="62" y="25.858398"/>
<use xlink:href="#glyph-0-7" x="65" y="25.858398"/>
<use xlink:href="#glyph-0-8" x="68" y="25.858398"/>
<use xlink:href="#glyph-0-2" x="72" y="25.858398"/>
<use xlink:href="#glyph-0-2" x="74" y="25.858398"/>
<use xlink:href="#glyph-0-2" x="76" y="25.858398"/>
<use xlink:href="#glyph-0-2" x="78" y="25.858398"/>
<use xlink:href="#glyph-0-2" x="80" y="25.858398"/>
<use xlink:href="#glyph-0-2" x="82" y="25.858398"/>
<use xlink:href="#glyph-0-2" x="84" y="25.858398"/>
<use xlink:href="#glyph-0-2" x="86" y="25.858398"/>
<use xlink:href="#glyph-0-2" x="88" y="25.858398"/>
<use xlink:href="#glyph-0-2" x="90" y="25.858398"/>
<use xlink:href="#glyph-0-2" x="92" y="25.858398"/>
<use xlink:href="#glyph-0-2" x="94" y="25.858398"/>
<use xlink:href="#glyph-0-8" x="96" y="25.858398"/>
<use xlink:href="#glyph-0-9" x="100" y="25.858398"/>
<use xlink:href="#glyph-0-10" x="102" y="25.858398"/>
<use xlink:href="#glyph-0-11" x="105" y="25.858398"/>
<use xlink:href="#glyph-0-11" x="109" y="25.858398"/>
<use xlink:href="#glyph-0-11" x="113" y="25.858398"/>
<use xlink:href="#glyph-0-11" x="117" y="25.858398"/>
<use xlink:href="#glyph-0-11" x="121" y="25.858398"/>
</g>
</svg>
