<?xml version="1.0" encoding="UTF-8"?>
<svg xmlns="http://www.w3.org/2000/svg" xmlns:xlink="http://www.w3.org/1999/xlink" width="1920" height="1080" viewBox="0 0 1920 1080">
<defs>
<g>
<g id="glyph-0-0">
<path d="M 4.75 -1.855469 C 4.75 -1.289062 4.5625 -0.816406 4.1875 -0.441406 C 3.8125 -0.0664062 3.335938 0.121094 2.757812 0.121094 C 2.535156 0.121094 2.34375 0.105469 2.183594 0.0742188 C 2.019531 0.0429688 1.886719 0.00390625 1.773438 -0.0429688 C 1.65625 -0.0898438 1.5625 -0.136719 1.496094 -0.183594 C 1.425781 -0.230469 1.371094 -0.269531 1.328125 -0.300781 L 0.785156 0.195312 L 0.5625 0.105469 C 0.574219 -0.078125 0.585938 -0.277344 0.59375 -0.496094 C 0.601562 -0.710938 0.609375 -1.003906 0.609375 -1.371094 L 0.609375 -4.925781 C 0.609375 -5.023438 0.589844 -5.109375 0.546875 -5.191406 C 0.507812 -5.277344 0.457031 -5.339844 0.390625 -5.382812 C 0.34375 -5.410156 0.273438 -5.4375 0.179688 -5.460938 C 0.0898438 -5.484375 0.00390625 -5.496094 -0.0742188 -5.503906 L -0.0742188 -5.78125 L 1.804688 -5.878906 L 1.859375 -5.816406 L 1.859375 -3.347656 L 1.882812 -3.347656 C 2.066406 -3.527344 2.257812 -3.660156 2.453125 -3.746094 C 2.648438 -3.828125 2.839844 -3.871094 3.035156 -3.871094 C 3.566406 -3.871094 3.984375 -3.6875 4.292969 -3.328125 C 4.597656 -2.964844 4.75 -2.476562 4.75 -1.855469 M 3.386719 -1.8125 C 3.386719 -2.003906 3.371094 -2.1875 3.34375 -2.367188 C 3.316406 -2.546875 3.265625 -2.703125 3.199219 -2.839844 C 3.128906 -2.976562 3.039062 -3.085938 2.929688 -3.167969 C 2.816406 -3.25 2.679688 -3.292969 2.515625 -3.292969 C 2.363281 -3.292969 2.234375 -3.265625 2.132812 -3.214844 C 2.03125 -3.164062 1.941406 -3.089844 1.859375 -2.992188 L 1.859375 -0.78125 C 1.875 -0.730469 1.90625 -0.664062 1.945312 -0.582031 C 1.988281 -0.5 2.03125 -0.4375 2.074219 -0.390625 C 2.132812 -0.324219 2.199219 -0.273438 2.265625 -0.242188 C 2.335938 -0.207031 2.429688 -0.191406 2.554688 -0.191406 C 2.8125 -0.191406 3.015625 -0.332031 3.164062 -0.613281 C 3.3125 -0.894531 3.386719 -1.296875 3.386719 -1.8125 Z "/>
</g>
<g id="glyph-0-1">
<path d="M 3.800781 -1.859375 L 0.671875 -1.859375 L 0.671875 -2.394531 C 0.769531 -2.5 0.9375 -2.640625 1.171875 -2.8125 C 1.410156 -2.984375 1.605469 -3.132812 1.765625 -3.246094 C 1.867188 -3.320312 1.972656 -3.410156 2.085938 -3.515625 C 2.195312 -3.621094 2.277344 -3.714844 2.328125 -3.800781 C 2.398438 -3.910156 2.453125 -4.015625 2.488281 -4.109375 C 2.523438 -4.207031 2.539062 -4.339844 2.539062 -4.507812 C 2.539062 -4.730469 2.484375 -4.910156 2.371094 -5.042969 C 2.257812 -5.175781 2.105469 -5.242188 1.914062 -5.242188 C 1.855469 -5.242188 1.796875 -5.234375 1.742188 -5.226562 C 1.6875 -5.21875 1.632812 -5.203125 1.574219 -5.183594 C 1.601562 -5.113281 1.628906 -5.03125 1.65625 -4.941406 C 1.6875 -4.847656 1.703125 -4.746094 1.703125 -4.632812 C 1.703125 -4.5 1.652344 -4.394531 1.554688 -4.316406 C 1.457031 -4.234375 1.332031 -4.195312 1.179688 -4.195312 C 1.039062 -4.195312 0.925781 -4.246094 0.835938 -4.34375 C 0.75 -4.441406 0.707031 -4.558594 0.707031 -4.699219 C 0.707031 -4.929688 0.84375 -5.125 1.121094 -5.289062 C 1.394531 -5.453125 1.726562 -5.535156 2.113281 -5.535156 C 2.582031 -5.535156 2.949219 -5.445312 3.222656 -5.257812 C 3.496094 -5.070312 3.632812 -4.8125 3.632812 -4.484375 C 3.632812 -4.265625 3.59375 -4.082031 3.507812 -3.929688 C 3.425781 -3.777344 3.320312 -3.648438 3.199219 -3.546875 C 3.074219 -3.445312 2.933594 -3.359375 2.78125 -3.285156 C 2.628906 -3.210938 2.492188 -3.148438 2.375 -3.097656 C 2.203125 -3.027344 2.039062 -2.957031 1.886719 -2.894531 C 1.734375 -2.832031 1.566406 -2.757812 1.382812 -2.675781 L 1.382812 -2.632812 L 3.800781 -2.632812 Z "/>
</g>
</g>
</defs>
<g fill="rgb(0%, 0%, 0%)" fill-opacity="1">
<use xlink:href="#glyph-0-0" x="30" y="27.131836"/>
<use xlink:href="#glyph-0-1" x="35" y="27.131836"/>
</g>
</svg>
